<mxfile host="Electron" modified="2025-03-23T03:43:20.334Z" agent="Mozilla/5.0 (Windows NT 10.0; Win64; x64) AppleWebKit/537.36 (KHTML, like Gecko) draw.io/21.6.8 Chrome/114.0.5735.289 Electron/25.5.0 Safari/537.36" etag="PbiIwAni75s72hxXFA4E" version="21.6.8" type="device">
  <diagram name="Page-1" id="pUVpb-MFFdkliwoQxU9Y">
    <mxGraphModel dx="2043" dy="1827" grid="1" gridSize="10" guides="1" tooltips="1" connect="1" arrows="1" fold="1" page="1" pageScale="1" pageWidth="827" pageHeight="1169" math="0" shadow="0">
      <root>
        <mxCell id="0" />
        <mxCell id="1" parent="0" />
        <mxCell id="dStVldGtHkLrAGqY0t3f-1" value="User" style="shape=umlActor;verticalLabelPosition=bottom;verticalAlign=top;html=1;" vertex="1" parent="1">
          <mxGeometry x="-40" y="100" width="30" height="60" as="geometry" />
        </mxCell>
        <mxCell id="dStVldGtHkLrAGqY0t3f-6" value="Registered?" style="strokeWidth=2;html=1;shape=mxgraph.flowchart.decision;whiteSpace=wrap;" vertex="1" parent="1">
          <mxGeometry x="171.25" y="235" width="147.5" height="80" as="geometry" />
        </mxCell>
        <mxCell id="dStVldGtHkLrAGqY0t3f-10" value="&lt;font style=&quot;font-size: 36px;&quot;&gt;Sign Up/ Log In&lt;/font&gt;" style="text;html=1;strokeColor=none;fillColor=none;align=center;verticalAlign=middle;whiteSpace=wrap;rounded=0;" vertex="1" parent="1">
          <mxGeometry x="110" y="-70" width="300" height="30" as="geometry" />
        </mxCell>
        <mxCell id="dStVldGtHkLrAGqY0t3f-11" value="Start" style="strokeWidth=2;html=1;shape=mxgraph.flowchart.start_1;whiteSpace=wrap;" vertex="1" parent="1">
          <mxGeometry x="187.5" y="90" width="115" height="70" as="geometry" />
        </mxCell>
        <mxCell id="dStVldGtHkLrAGqY0t3f-16" value="" style="endArrow=block;endSize=16;endFill=0;html=1;rounded=0;entryX=0.5;entryY=0;entryDx=0;entryDy=0;entryPerimeter=0;exitX=0.5;exitY=1;exitDx=0;exitDy=0;exitPerimeter=0;" edge="1" parent="1" source="dStVldGtHkLrAGqY0t3f-11" target="dStVldGtHkLrAGqY0t3f-6">
          <mxGeometry width="160" relative="1" as="geometry">
            <mxPoint x="350" y="160" as="sourcePoint" />
            <mxPoint x="510" y="160" as="targetPoint" />
          </mxGeometry>
        </mxCell>
        <mxCell id="dStVldGtHkLrAGqY0t3f-19" value="Yes" style="text;align=center;fontStyle=1;verticalAlign=middle;spacingLeft=3;spacingRight=3;strokeColor=none;rotatable=0;points=[[0,0.5],[1,0.5]];portConstraint=eastwest;html=1;" vertex="1" parent="1">
          <mxGeometry x="348" y="250" width="80" height="26" as="geometry" />
        </mxCell>
        <mxCell id="dStVldGtHkLrAGqY0t3f-20" value="No" style="text;align=center;fontStyle=1;verticalAlign=middle;spacingLeft=3;spacingRight=3;strokeColor=none;rotatable=0;points=[[0,0.5],[1,0.5]];portConstraint=eastwest;html=1;" vertex="1" parent="1">
          <mxGeometry x="180" y="344" width="80" height="26" as="geometry" />
        </mxCell>
        <mxCell id="dStVldGtHkLrAGqY0t3f-21" value="New user" style="rounded=1;whiteSpace=wrap;html=1;absoluteArcSize=1;arcSize=14;strokeWidth=2;" vertex="1" parent="1">
          <mxGeometry x="195" y="400" width="100" height="50" as="geometry" />
        </mxCell>
        <mxCell id="dStVldGtHkLrAGqY0t3f-22" value="Log In" style="rounded=1;whiteSpace=wrap;html=1;absoluteArcSize=1;arcSize=14;strokeWidth=2;" vertex="1" parent="1">
          <mxGeometry x="480" y="265" width="100" height="50" as="geometry" />
        </mxCell>
        <mxCell id="dStVldGtHkLrAGqY0t3f-26" value="" style="endArrow=open;endFill=1;endSize=12;html=1;rounded=0;exitX=0.5;exitY=1;exitDx=0;exitDy=0;exitPerimeter=0;entryX=0.5;entryY=0;entryDx=0;entryDy=0;" edge="1" parent="1" source="dStVldGtHkLrAGqY0t3f-6" target="dStVldGtHkLrAGqY0t3f-21">
          <mxGeometry width="160" relative="1" as="geometry">
            <mxPoint x="440" y="540" as="sourcePoint" />
            <mxPoint x="600" y="540" as="targetPoint" />
          </mxGeometry>
        </mxCell>
        <mxCell id="dStVldGtHkLrAGqY0t3f-27" value="" style="endArrow=open;endFill=1;endSize=12;html=1;rounded=0;exitX=1;exitY=0.5;exitDx=0;exitDy=0;exitPerimeter=0;entryX=0;entryY=0.25;entryDx=0;entryDy=0;" edge="1" parent="1" source="dStVldGtHkLrAGqY0t3f-6" target="dStVldGtHkLrAGqY0t3f-22">
          <mxGeometry width="160" relative="1" as="geometry">
            <mxPoint x="530" y="460" as="sourcePoint" />
            <mxPoint x="530" y="560" as="targetPoint" />
          </mxGeometry>
        </mxCell>
        <mxCell id="dStVldGtHkLrAGqY0t3f-28" value="" style="endArrow=open;endFill=1;endSize=12;html=1;rounded=0;entryX=0.5;entryY=0;entryDx=0;entryDy=0;entryPerimeter=0;exitX=0.5;exitY=1;exitDx=0;exitDy=0;" edge="1" parent="1" source="dStVldGtHkLrAGqY0t3f-31" target="dStVldGtHkLrAGqY0t3f-29">
          <mxGeometry width="160" relative="1" as="geometry">
            <mxPoint x="640" y="540" as="sourcePoint" />
            <mxPoint x="245" y="580" as="targetPoint" />
          </mxGeometry>
        </mxCell>
        <mxCell id="dStVldGtHkLrAGqY0t3f-29" value="" style="strokeWidth=2;html=1;shape=mxgraph.flowchart.database;whiteSpace=wrap;" vertex="1" parent="1">
          <mxGeometry x="215" y="670" width="60" height="100" as="geometry" />
        </mxCell>
        <mxCell id="dStVldGtHkLrAGqY0t3f-30" value="&lt;font style=&quot;font-size: 14px;&quot;&gt;Save to Firestore&lt;/font&gt;" style="text;html=1;strokeColor=none;fillColor=none;align=center;verticalAlign=middle;whiteSpace=wrap;rounded=0;" vertex="1" parent="1">
          <mxGeometry x="125" y="620" width="90" height="30" as="geometry" />
        </mxCell>
        <mxCell id="dStVldGtHkLrAGqY0t3f-31" value="&lt;font style=&quot;font-size: 14px;&quot;&gt;Registration&lt;/font&gt;" style="whiteSpace=wrap;html=1;aspect=fixed;" vertex="1" parent="1">
          <mxGeometry x="192.5" y="500" width="105" height="105" as="geometry" />
        </mxCell>
        <mxCell id="dStVldGtHkLrAGqY0t3f-32" value="" style="endArrow=open;endFill=1;endSize=12;html=1;rounded=0;exitX=0.5;exitY=1;exitDx=0;exitDy=0;entryX=0.5;entryY=0;entryDx=0;entryDy=0;" edge="1" parent="1" source="dStVldGtHkLrAGqY0t3f-21" target="dStVldGtHkLrAGqY0t3f-31">
          <mxGeometry width="160" relative="1" as="geometry">
            <mxPoint x="390" y="360" as="sourcePoint" />
            <mxPoint x="390" y="460" as="targetPoint" />
          </mxGeometry>
        </mxCell>
        <mxCell id="dStVldGtHkLrAGqY0t3f-35" value="Valid credentials?" style="strokeWidth=2;html=1;shape=mxgraph.flowchart.decision;whiteSpace=wrap;" vertex="1" parent="1">
          <mxGeometry x="459.38" y="370" width="141.25" height="80" as="geometry" />
        </mxCell>
        <mxCell id="dStVldGtHkLrAGqY0t3f-36" value="" style="endArrow=open;endFill=1;endSize=12;html=1;rounded=0;exitX=0.5;exitY=1;exitDx=0;exitDy=0;entryX=0.5;entryY=0;entryDx=0;entryDy=0;entryPerimeter=0;" edge="1" parent="1" source="dStVldGtHkLrAGqY0t3f-22" target="dStVldGtHkLrAGqY0t3f-35">
          <mxGeometry width="160" relative="1" as="geometry">
            <mxPoint x="620" y="570" as="sourcePoint" />
            <mxPoint x="620" y="670" as="targetPoint" />
          </mxGeometry>
        </mxCell>
        <mxCell id="dStVldGtHkLrAGqY0t3f-37" value="No" style="text;align=center;fontStyle=1;verticalAlign=middle;spacingLeft=3;spacingRight=3;strokeColor=none;rotatable=0;points=[[0,0.5],[1,0.5]];portConstraint=eastwest;html=1;" vertex="1" parent="1">
          <mxGeometry x="600.63" y="370" width="80" height="26" as="geometry" />
        </mxCell>
        <mxCell id="dStVldGtHkLrAGqY0t3f-38" value="Yes" style="text;align=center;fontStyle=1;verticalAlign=middle;spacingLeft=3;spacingRight=3;strokeColor=none;rotatable=0;points=[[0,0.5],[1,0.5]];portConstraint=eastwest;html=1;" vertex="1" parent="1">
          <mxGeometry x="540" y="474" width="80" height="26" as="geometry" />
        </mxCell>
        <mxCell id="dStVldGtHkLrAGqY0t3f-39" value="" style="endArrow=open;endFill=1;endSize=12;html=1;rounded=0;exitX=0.5;exitY=1;exitDx=0;exitDy=0;exitPerimeter=0;entryX=0.5;entryY=0;entryDx=0;entryDy=0;" edge="1" parent="1" source="dStVldGtHkLrAGqY0t3f-35" target="dStVldGtHkLrAGqY0t3f-42">
          <mxGeometry width="160" relative="1" as="geometry">
            <mxPoint x="600.63" y="409.5" as="sourcePoint" />
            <mxPoint x="710" y="410" as="targetPoint" />
          </mxGeometry>
        </mxCell>
        <mxCell id="dStVldGtHkLrAGqY0t3f-42" value="" style="ellipse;html=1;shape=endState;fillColor=#000000;strokeColor=#ff0000;" vertex="1" parent="1">
          <mxGeometry x="505" y="535" width="50" height="50" as="geometry" />
        </mxCell>
        <mxCell id="dStVldGtHkLrAGqY0t3f-43" value="" style="endArrow=open;endFill=1;endSize=12;html=1;rounded=0;exitX=1;exitY=0.5;exitDx=0;exitDy=0;exitPerimeter=0;entryX=1;entryY=0.25;entryDx=0;entryDy=0;" edge="1" parent="1" source="dStVldGtHkLrAGqY0t3f-35" target="dStVldGtHkLrAGqY0t3f-22">
          <mxGeometry width="160" relative="1" as="geometry">
            <mxPoint x="700" y="380" as="sourcePoint" />
            <mxPoint x="630" y="260" as="targetPoint" />
            <Array as="points">
              <mxPoint x="720" y="410" />
              <mxPoint x="720" y="280" />
            </Array>
          </mxGeometry>
        </mxCell>
        <mxCell id="dStVldGtHkLrAGqY0t3f-44" value="" style="endArrow=block;endSize=16;endFill=0;html=1;rounded=0;exitX=1;exitY=0.3333333333333333;exitDx=0;exitDy=0;exitPerimeter=0;" edge="1" parent="1" source="dStVldGtHkLrAGqY0t3f-1">
          <mxGeometry width="160" relative="1" as="geometry">
            <mxPoint x="480" y="70" as="sourcePoint" />
            <mxPoint x="190" y="125" as="targetPoint" />
          </mxGeometry>
        </mxCell>
      </root>
    </mxGraphModel>
  </diagram>
</mxfile>
